<svg width="159" height="19" viewBox="0 0 159 19" fill="none" xmlns="http://www.w3.org/2000/svg">
<path fill-rule="evenodd" clip-rule="evenodd" d="M9.66143 0C10.0442 0 10.3838 0.240715 10.5034 0.596888L12.3676 6.14802L12.3676 6.14803C12.4197 6.30299 12.5081 6.44383 12.6259 6.55918C12.7437 6.67453 12.8875 6.76119 13.0457 6.81215L13.0457 6.81216L18.7134 8.63802C19.0771 8.75518 19.3229 9.08775 19.3229 9.4627C19.3229 9.83764 19.0771 10.1702 18.7134 10.2874L13.0457 12.1132L13.0457 12.1132C12.8875 12.1642 12.7437 12.2509 12.6259 12.3662C12.5081 12.4816 12.4197 12.6224 12.3676 12.7774L12.3676 12.7774L10.5034 18.3285C10.3838 18.6847 10.0442 18.9254 9.66143 18.9254C9.27861 18.9254 8.93905 18.6847 8.81943 18.3285L6.95522 12.7774L6.95522 12.7774C6.90318 12.6224 6.81471 12.4816 6.69693 12.3662C6.57915 12.2509 6.43537 12.1642 6.27715 12.1132L6.27713 12.1132L0.609423 10.2874C0.24577 10.1702 0 9.83764 0 9.4627C0 9.08775 0.24577 8.75518 0.609423 8.63802L6.27713 6.81216L6.27715 6.81215C6.43537 6.76119 6.57915 6.67453 6.69693 6.55918C6.81471 6.44383 6.90318 6.30299 6.95522 6.14803L6.95522 6.14802L8.81943 0.596888C8.93905 0.240715 9.27861 0 9.66143 0ZM8.63921 6.69051C8.63921 6.69051 8.63921 6.69051 8.63921 6.69052C8.50043 7.10376 8.26451 7.47931 7.95045 7.78691C7.63638 8.09452 7.25295 8.32558 6.83103 8.4615C6.83102 8.46151 6.83102 8.46151 6.83102 8.46151L3.7232 9.4627L6.83102 10.4639C6.83102 10.4639 6.83102 10.4639 6.83103 10.4639C7.25295 10.5998 7.63638 10.8309 7.95045 11.1385C8.26451 11.4461 8.50043 11.8216 8.63921 12.2349C8.63921 12.2349 8.63921 12.2349 8.63921 12.2349L9.66143 15.2788L10.6836 12.2349C10.6836 12.2349 10.6836 12.2349 10.6836 12.2349C10.8224 11.8216 11.0583 11.4461 11.3724 11.1385C11.6865 10.8309 12.0699 10.5998 12.4918 10.4639C12.4918 10.4639 12.4918 10.4639 12.4918 10.4639L15.5997 9.4627L12.4918 8.46151C12.4918 8.46151 12.4918 8.46151 12.4918 8.4615C12.0699 8.32558 11.6865 8.09452 11.3724 7.78691C11.0583 7.47931 10.8224 7.10376 10.6836 6.69052C10.6836 6.69051 10.6836 6.69051 10.6836 6.69051L9.66143 3.64662L8.63921 6.69051Z" fill="#2B303B"/>
<path fill-rule="evenodd" clip-rule="evenodd" d="M2.83559 0C3.32512 0 3.72196 0.388678 3.72196 0.868137V4.68794C3.72196 5.1674 3.32512 5.55608 2.83559 5.55608C2.34606 5.55608 1.94922 5.1674 1.94922 4.68794V0.868137C1.94922 0.388678 2.34606 0 2.83559 0Z" fill="#7A52E1"/>
<path fill-rule="evenodd" clip-rule="evenodd" d="M16.486 13.3694C16.9755 13.3694 17.3723 13.7581 17.3723 14.2375V18.0573C17.3723 18.5368 16.9755 18.9255 16.486 18.9255C15.9965 18.9255 15.5996 18.5368 15.5996 18.0573V14.2375C15.5996 13.7581 15.9965 13.3694 16.486 13.3694Z" fill="#7A52E1"/>
<path fill-rule="evenodd" clip-rule="evenodd" d="M0 2.77805C0 2.29859 0.396841 1.90991 0.886369 1.90991H4.7864C5.27592 1.90991 5.67276 2.29859 5.67276 2.77805C5.67276 3.25751 5.27592 3.64619 4.7864 3.64619H0.886369C0.396841 3.64619 0 3.25751 0 2.77805Z" fill="#7A52E1"/>
<path fill-rule="evenodd" clip-rule="evenodd" d="M13.6504 16.1474C13.6504 15.668 14.0472 15.2793 14.5368 15.2793H18.4368C18.9263 15.2793 19.3232 15.668 19.3232 16.1474C19.3232 16.6269 18.9263 17.0156 18.4368 17.0156H14.5368C14.0472 17.0156 13.6504 16.6269 13.6504 16.1474Z" fill="#7A52E1"/>
<mask id="path-6-outside-1_2051_554" maskUnits="userSpaceOnUse" x="24.3223" y="0.0974121" width="72" height="19" fill="black">
<rect fill="white" x="24.3223" y="0.0974121" width="72" height="19"/>
<path d="M32.9737 17.8279C30.624 17.8279 28.7576 17.1066 27.3745 15.6641C26.0064 14.2066 25.3223 12.1395 25.3223 9.46264C25.3223 6.81551 25.984 4.76324 27.3076 3.30583C28.646 1.83355 30.5124 1.09741 32.9067 1.09741C34.0072 1.09741 34.9293 1.16433 35.6728 1.29818C36.0298 1.35766 36.3272 1.53612 36.5651 1.83355C36.8031 2.13098 36.922 2.46559 36.922 2.83738V3.01584C36.922 3.32814 36.7882 3.57352 36.5205 3.75198C36.2677 3.93043 35.9926 3.98248 35.6951 3.90813C34.9664 3.7148 34.1485 3.61813 33.2413 3.61813C31.7691 3.61813 30.6091 4.12376 29.7614 5.13503C28.9286 6.14629 28.5122 7.58883 28.5122 9.46264C28.5122 11.3216 28.9435 12.7641 29.806 13.7902C30.6834 14.8015 31.8509 15.3071 33.3083 15.3071C34.2898 15.3071 35.13 15.2179 35.829 15.0395C36.1264 14.9651 36.4015 15.0171 36.6544 15.1956C36.922 15.3741 37.0559 15.6194 37.0559 15.9317V16.0879C37.0559 16.4597 36.9369 16.7943 36.699 17.0917C36.4759 17.3743 36.1785 17.5453 35.8067 17.6048C34.959 17.7535 34.0147 17.8279 32.9737 17.8279Z"/>
<path d="M46.6262 8.88265C46.195 8.25804 45.5406 7.94574 44.6632 7.94574C43.7858 7.94574 43.124 8.25804 42.6778 8.88265C42.2466 9.49238 42.0309 10.4665 42.0309 11.8049C42.0309 13.1433 42.2466 14.1249 42.6778 14.7495C43.124 15.3592 43.7858 15.6641 44.6632 15.6641C45.5406 15.6641 46.195 15.3592 46.6262 14.7495C47.0724 14.1249 47.2954 13.1433 47.2954 11.8049C47.2954 10.4665 47.0724 9.49238 46.6262 8.88265ZM48.8123 16.2664C47.8308 17.3074 46.4478 17.8279 44.6632 17.8279C42.8786 17.8279 41.4881 17.3074 40.4917 16.2664C39.5102 15.2105 39.0194 13.7233 39.0194 11.8049C39.0194 9.88647 39.5102 8.40676 40.4917 7.36575C41.4881 6.30988 42.8786 5.78194 44.6632 5.78194C46.4478 5.78194 47.8308 6.30988 48.8123 7.36575C49.8087 8.40676 50.3069 9.88647 50.3069 11.8049C50.3069 13.7233 49.8087 15.2105 48.8123 16.2664Z"/>
<path d="M53.6579 17.6048C53.3159 17.6048 53.0184 17.4784 52.7656 17.2256C52.5128 16.9727 52.3864 16.6753 52.3864 16.3333V7.27652C52.3864 6.93448 52.5128 6.63705 52.7656 6.38423C53.0184 6.13142 53.3159 6.00501 53.6579 6.00501H54.104C54.4461 6.00501 54.7435 6.13142 54.9963 6.38423C55.2491 6.63705 55.3756 6.93448 55.3756 7.27652V8.21343C55.3756 8.2283 55.383 8.23574 55.3979 8.23574C55.4276 8.23574 55.4425 8.2283 55.4425 8.21343C55.8738 7.61857 56.4389 7.13525 57.1378 6.76346C57.8368 6.3768 58.6027 6.13885 59.4355 6.04963C59.7478 6.01988 60.0155 6.12398 60.2385 6.36193C60.4616 6.585 60.5731 6.85269 60.5731 7.16499C60.5731 7.47729 60.4616 7.74498 60.2385 7.96805C60.0155 8.19112 59.7478 8.31753 59.4355 8.34727C56.8032 8.55547 55.4871 9.89391 55.4871 12.3626V16.3333C55.4871 16.6753 55.3607 16.9727 55.1079 17.2256C54.8551 17.4784 54.5576 17.6048 54.2156 17.6048H53.6579Z"/>
<path d="M63.5032 8.61496C63.2058 8.61496 62.953 8.51086 62.7448 8.30266C62.5366 8.07959 62.4325 7.81933 62.4325 7.5219C62.4325 7.22447 62.5366 6.97166 62.7448 6.76346C62.953 6.55526 63.2058 6.45116 63.5032 6.45116H64.574C64.7078 6.45116 64.7748 6.38423 64.7748 6.25039V3.48429C64.7748 3.14224 64.8937 2.84481 65.1317 2.592C65.3845 2.33918 65.6819 2.21277 66.024 2.21277H66.4701C66.8122 2.21277 67.1096 2.33918 67.3624 2.592C67.6152 2.84481 67.7416 3.14224 67.7416 3.48429V6.25039C67.7416 6.38423 67.8085 6.45116 67.9424 6.45116H70.4854C70.7828 6.45116 71.0357 6.55526 71.2439 6.76346C71.4669 6.97166 71.5785 7.22447 71.5785 7.5219C71.5785 7.81933 71.4669 8.07959 71.2439 8.30266C71.0357 8.51086 70.7828 8.61496 70.4854 8.61496H67.9424C67.8085 8.61496 67.7416 8.67445 67.7416 8.79342V13.2995C67.7416 14.2661 67.8457 14.8907 68.0539 15.1733C68.2621 15.4559 68.6934 15.5971 69.3477 15.5971C69.7047 15.5971 69.9724 15.5823 70.1508 15.5525C70.4482 15.5228 70.7085 15.5897 70.9316 15.7533C71.1546 15.9169 71.2662 16.1399 71.2662 16.4225C71.2662 16.7497 71.1546 17.0471 70.9316 17.3148C70.7234 17.5676 70.4631 17.7089 70.1508 17.7386C69.4965 17.7981 69.0057 17.8279 68.6785 17.8279C67.236 17.8279 66.2247 17.523 65.6447 16.9133C65.0648 16.2887 64.7748 15.1807 64.7748 13.5895V8.79342C64.7748 8.67445 64.7078 8.61496 64.574 8.61496H63.5032Z"/>
<path d="M78.9549 7.85651C78.1964 7.85651 77.609 8.07215 77.1926 8.50342C76.7911 8.91983 76.5382 9.59648 76.4341 10.5334C76.4341 10.6524 76.4936 10.7118 76.6126 10.7118H80.9848C81.1038 10.7118 81.1633 10.6524 81.1633 10.5334C81.1038 8.74881 80.3677 7.85651 78.9549 7.85651ZM79.5125 17.8279C77.5644 17.8279 76.0624 17.3222 75.0065 16.311C73.9655 15.2848 73.445 13.7828 73.445 11.8049C73.445 9.84186 73.9134 8.34727 74.8503 7.32114C75.7872 6.295 77.1405 5.78194 78.9102 5.78194C82.2117 5.78194 83.9071 7.65575 83.9963 11.4034C84.0112 11.7603 83.8848 12.0577 83.6171 12.2957C83.3494 12.5336 83.0371 12.6526 82.6802 12.6526H76.5903C76.4564 12.6526 76.4044 12.7195 76.4341 12.8533C76.5382 13.8497 76.8654 14.5784 77.4157 15.0395C77.9808 15.4856 78.7987 15.7087 79.8695 15.7087C80.5387 15.7087 81.2823 15.5971 82.1002 15.3741C82.3679 15.2997 82.6133 15.3443 82.8363 15.5079C83.0743 15.6715 83.1932 15.8946 83.1932 16.1771C83.1932 16.5192 83.0891 16.824 82.8809 17.0917C82.6876 17.3445 82.4274 17.5007 82.1002 17.5602C81.2674 17.7386 80.4048 17.8279 79.5125 17.8279Z"/>
<path d="M85.9707 17.6048C85.6881 17.6048 85.4799 17.4858 85.3461 17.2479C85.2122 17.0099 85.2197 16.772 85.3684 16.534L88.2237 11.8495C88.2981 11.7454 88.2981 11.6413 88.2237 11.5372L85.4799 7.07576C85.3312 6.83781 85.3238 6.59987 85.4576 6.36193C85.5914 6.12398 85.7996 6.00501 86.0822 6.00501H86.796C87.1827 6.00501 87.5396 6.10911 87.8668 6.31731C88.2088 6.51064 88.4691 6.77833 88.6475 7.12037L90.1644 10.0426C90.1644 10.0575 90.1719 10.0649 90.1867 10.0649C90.2016 10.0649 90.209 10.0575 90.209 10.0426L91.7259 7.12037C91.9044 6.77833 92.1572 6.51064 92.4844 6.31731C92.8116 6.10911 93.1759 6.00501 93.5774 6.00501H94.202C94.4846 6.00501 94.6928 6.12398 94.8267 6.36193C94.9605 6.59987 94.9531 6.83781 94.8043 7.07576L92.0606 11.5372C91.9862 11.6413 91.9862 11.7454 92.0606 11.8495L94.9159 16.534C95.0646 16.772 95.072 17.0099 94.9382 17.2479C94.8043 17.4858 94.5961 17.6048 94.3136 17.6048H93.5998C93.1982 17.6048 92.8339 17.5081 92.5067 17.3148C92.1795 17.1066 91.9267 16.8315 91.7483 16.4894L90.1198 13.3664C90.1198 13.3515 90.1124 13.3441 90.0975 13.3441C90.0826 13.3441 90.0752 13.3515 90.0752 13.3664L88.4468 16.4894C88.2683 16.8315 88.0081 17.1066 87.666 17.3148C87.3388 17.5081 86.9819 17.6048 86.5953 17.6048H85.9707Z"/>
</mask>
<path d="M32.9737 17.8279C30.624 17.8279 28.7576 17.1066 27.3745 15.6641C26.0064 14.2066 25.3223 12.1395 25.3223 9.46264C25.3223 6.81551 25.984 4.76324 27.3076 3.30583C28.646 1.83355 30.5124 1.09741 32.9067 1.09741C34.0072 1.09741 34.9293 1.16433 35.6728 1.29818C36.0298 1.35766 36.3272 1.53612 36.5651 1.83355C36.8031 2.13098 36.922 2.46559 36.922 2.83738V3.01584C36.922 3.32814 36.7882 3.57352 36.5205 3.75198C36.2677 3.93043 35.9926 3.98248 35.6951 3.90813C34.9664 3.7148 34.1485 3.61813 33.2413 3.61813C31.7691 3.61813 30.6091 4.12376 29.7614 5.13503C28.9286 6.14629 28.5122 7.58883 28.5122 9.46264C28.5122 11.3216 28.9435 12.7641 29.806 13.7902C30.6834 14.8015 31.8509 15.3071 33.3083 15.3071C34.2898 15.3071 35.13 15.2179 35.829 15.0395C36.1264 14.9651 36.4015 15.0171 36.6544 15.1956C36.922 15.3741 37.0559 15.6194 37.0559 15.9317V16.0879C37.0559 16.4597 36.9369 16.7943 36.699 17.0917C36.4759 17.3743 36.1785 17.5453 35.8067 17.6048C34.959 17.7535 34.0147 17.8279 32.9737 17.8279Z" fill="#2B303B"/>
<path d="M46.6262 8.88265C46.195 8.25804 45.5406 7.94574 44.6632 7.94574C43.7858 7.94574 43.124 8.25804 42.6778 8.88265C42.2466 9.49238 42.0309 10.4665 42.0309 11.8049C42.0309 13.1433 42.2466 14.1249 42.6778 14.7495C43.124 15.3592 43.7858 15.6641 44.6632 15.6641C45.5406 15.6641 46.195 15.3592 46.6262 14.7495C47.0724 14.1249 47.2954 13.1433 47.2954 11.8049C47.2954 10.4665 47.0724 9.49238 46.6262 8.88265ZM48.8123 16.2664C47.8308 17.3074 46.4478 17.8279 44.6632 17.8279C42.8786 17.8279 41.4881 17.3074 40.4917 16.2664C39.5102 15.2105 39.0194 13.7233 39.0194 11.8049C39.0194 9.88647 39.5102 8.40676 40.4917 7.36575C41.4881 6.30988 42.8786 5.78194 44.6632 5.78194C46.4478 5.78194 47.8308 6.30988 48.8123 7.36575C49.8087 8.40676 50.3069 9.88647 50.3069 11.8049C50.3069 13.7233 49.8087 15.2105 48.8123 16.2664Z" fill="#2B303B"/>
<path d="M53.6579 17.6048C53.3159 17.6048 53.0184 17.4784 52.7656 17.2256C52.5128 16.9727 52.3864 16.6753 52.3864 16.3333V7.27652C52.3864 6.93448 52.5128 6.63705 52.7656 6.38423C53.0184 6.13142 53.3159 6.00501 53.6579 6.00501H54.104C54.4461 6.00501 54.7435 6.13142 54.9963 6.38423C55.2491 6.63705 55.3756 6.93448 55.3756 7.27652V8.21343C55.3756 8.2283 55.383 8.23574 55.3979 8.23574C55.4276 8.23574 55.4425 8.2283 55.4425 8.21343C55.8738 7.61857 56.4389 7.13525 57.1378 6.76346C57.8368 6.3768 58.6027 6.13885 59.4355 6.04963C59.7478 6.01988 60.0155 6.12398 60.2385 6.36193C60.4616 6.585 60.5731 6.85269 60.5731 7.16499C60.5731 7.47729 60.4616 7.74498 60.2385 7.96805C60.0155 8.19112 59.7478 8.31753 59.4355 8.34727C56.8032 8.55547 55.4871 9.89391 55.4871 12.3626V16.3333C55.4871 16.6753 55.3607 16.9727 55.1079 17.2256C54.8551 17.4784 54.5576 17.6048 54.2156 17.6048H53.6579Z" fill="#2B303B"/>
<path d="M63.5032 8.61496C63.2058 8.61496 62.953 8.51086 62.7448 8.30266C62.5366 8.07959 62.4325 7.81933 62.4325 7.5219C62.4325 7.22447 62.5366 6.97166 62.7448 6.76346C62.953 6.55526 63.2058 6.45116 63.5032 6.45116H64.574C64.7078 6.45116 64.7748 6.38423 64.7748 6.25039V3.48429C64.7748 3.14224 64.8937 2.84481 65.1317 2.592C65.3845 2.33918 65.6819 2.21277 66.024 2.21277H66.4701C66.8122 2.21277 67.1096 2.33918 67.3624 2.592C67.6152 2.84481 67.7416 3.14224 67.7416 3.48429V6.25039C67.7416 6.38423 67.8085 6.45116 67.9424 6.45116H70.4854C70.7828 6.45116 71.0357 6.55526 71.2439 6.76346C71.4669 6.97166 71.5785 7.22447 71.5785 7.5219C71.5785 7.81933 71.4669 8.07959 71.2439 8.30266C71.0357 8.51086 70.7828 8.61496 70.4854 8.61496H67.9424C67.8085 8.61496 67.7416 8.67445 67.7416 8.79342V13.2995C67.7416 14.2661 67.8457 14.8907 68.0539 15.1733C68.2621 15.4559 68.6934 15.5971 69.3477 15.5971C69.7047 15.5971 69.9724 15.5823 70.1508 15.5525C70.4482 15.5228 70.7085 15.5897 70.9316 15.7533C71.1546 15.9169 71.2662 16.1399 71.2662 16.4225C71.2662 16.7497 71.1546 17.0471 70.9316 17.3148C70.7234 17.5676 70.4631 17.7089 70.1508 17.7386C69.4965 17.7981 69.0057 17.8279 68.6785 17.8279C67.236 17.8279 66.2247 17.523 65.6447 16.9133C65.0648 16.2887 64.7748 15.1807 64.7748 13.5895V8.79342C64.7748 8.67445 64.7078 8.61496 64.574 8.61496H63.5032Z" fill="#2B303B"/>
<path d="M78.9549 7.85651C78.1964 7.85651 77.609 8.07215 77.1926 8.50342C76.7911 8.91983 76.5382 9.59648 76.4341 10.5334C76.4341 10.6524 76.4936 10.7118 76.6126 10.7118H80.9848C81.1038 10.7118 81.1633 10.6524 81.1633 10.5334C81.1038 8.74881 80.3677 7.85651 78.9549 7.85651ZM79.5125 17.8279C77.5644 17.8279 76.0624 17.3222 75.0065 16.311C73.9655 15.2848 73.445 13.7828 73.445 11.8049C73.445 9.84186 73.9134 8.34727 74.8503 7.32114C75.7872 6.295 77.1405 5.78194 78.9102 5.78194C82.2117 5.78194 83.9071 7.65575 83.9963 11.4034C84.0112 11.7603 83.8848 12.0577 83.6171 12.2957C83.3494 12.5336 83.0371 12.6526 82.6802 12.6526H76.5903C76.4564 12.6526 76.4044 12.7195 76.4341 12.8533C76.5382 13.8497 76.8654 14.5784 77.4157 15.0395C77.9808 15.4856 78.7987 15.7087 79.8695 15.7087C80.5387 15.7087 81.2823 15.5971 82.1002 15.3741C82.3679 15.2997 82.6133 15.3443 82.8363 15.5079C83.0743 15.6715 83.1932 15.8946 83.1932 16.1771C83.1932 16.5192 83.0891 16.824 82.8809 17.0917C82.6876 17.3445 82.4274 17.5007 82.1002 17.5602C81.2674 17.7386 80.4048 17.8279 79.5125 17.8279Z" fill="#2B303B"/>
<path d="M85.9707 17.6048C85.6881 17.6048 85.4799 17.4858 85.3461 17.2479C85.2122 17.0099 85.2197 16.772 85.3684 16.534L88.2237 11.8495C88.2981 11.7454 88.2981 11.6413 88.2237 11.5372L85.4799 7.07576C85.3312 6.83781 85.3238 6.59987 85.4576 6.36193C85.5914 6.12398 85.7996 6.00501 86.0822 6.00501H86.796C87.1827 6.00501 87.5396 6.10911 87.8668 6.31731C88.2088 6.51064 88.4691 6.77833 88.6475 7.12037L90.1644 10.0426C90.1644 10.0575 90.1719 10.0649 90.1867 10.0649C90.2016 10.0649 90.209 10.0575 90.209 10.0426L91.7259 7.12037C91.9044 6.77833 92.1572 6.51064 92.4844 6.31731C92.8116 6.10911 93.1759 6.00501 93.5774 6.00501H94.202C94.4846 6.00501 94.6928 6.12398 94.8267 6.36193C94.9605 6.59987 94.9531 6.83781 94.8043 7.07576L92.0606 11.5372C91.9862 11.6413 91.9862 11.7454 92.0606 11.8495L94.9159 16.534C95.0646 16.772 95.072 17.0099 94.9382 17.2479C94.8043 17.4858 94.5961 17.6048 94.3136 17.6048H93.5998C93.1982 17.6048 92.8339 17.5081 92.5067 17.3148C92.1795 17.1066 91.9267 16.8315 91.7483 16.4894L90.1198 13.3664C90.1198 13.3515 90.1124 13.3441 90.0975 13.3441C90.0826 13.3441 90.0752 13.3515 90.0752 13.3664L88.4468 16.4894C88.2683 16.8315 88.0081 17.1066 87.666 17.3148C87.3388 17.5081 86.9819 17.6048 86.5953 17.6048H85.9707Z" fill="#2B303B"/>
<path d="M32.9737 17.8279C30.624 17.8279 28.7576 17.1066 27.3745 15.6641C26.0064 14.2066 25.3223 12.1395 25.3223 9.46264C25.3223 6.81551 25.984 4.76324 27.3076 3.30583C28.646 1.83355 30.5124 1.09741 32.9067 1.09741C34.0072 1.09741 34.9293 1.16433 35.6728 1.29818C36.0298 1.35766 36.3272 1.53612 36.5651 1.83355C36.8031 2.13098 36.922 2.46559 36.922 2.83738V3.01584C36.922 3.32814 36.7882 3.57352 36.5205 3.75198C36.2677 3.93043 35.9926 3.98248 35.6951 3.90813C34.9664 3.7148 34.1485 3.61813 33.2413 3.61813C31.7691 3.61813 30.6091 4.12376 29.7614 5.13503C28.9286 6.14629 28.5122 7.58883 28.5122 9.46264C28.5122 11.3216 28.9435 12.7641 29.806 13.7902C30.6834 14.8015 31.8509 15.3071 33.3083 15.3071C34.2898 15.3071 35.13 15.2179 35.829 15.0395C36.1264 14.9651 36.4015 15.0171 36.6544 15.1956C36.922 15.3741 37.0559 15.6194 37.0559 15.9317V16.0879C37.0559 16.4597 36.9369 16.7943 36.699 17.0917C36.4759 17.3743 36.1785 17.5453 35.8067 17.6048C34.959 17.7535 34.0147 17.8279 32.9737 17.8279Z" stroke="#2B303B" stroke-width="0.929469" mask="url(#path-6-outside-1_2051_554)"/>
<path d="M46.6262 8.88265C46.195 8.25804 45.5406 7.94574 44.6632 7.94574C43.7858 7.94574 43.124 8.25804 42.6778 8.88265C42.2466 9.49238 42.0309 10.4665 42.0309 11.8049C42.0309 13.1433 42.2466 14.1249 42.6778 14.7495C43.124 15.3592 43.7858 15.6641 44.6632 15.6641C45.5406 15.6641 46.195 15.3592 46.6262 14.7495C47.0724 14.1249 47.2954 13.1433 47.2954 11.8049C47.2954 10.4665 47.0724 9.49238 46.6262 8.88265ZM48.8123 16.2664C47.8308 17.3074 46.4478 17.8279 44.6632 17.8279C42.8786 17.8279 41.4881 17.3074 40.4917 16.2664C39.5102 15.2105 39.0194 13.7233 39.0194 11.8049C39.0194 9.88647 39.5102 8.40676 40.4917 7.36575C41.4881 6.30988 42.8786 5.78194 44.6632 5.78194C46.4478 5.78194 47.8308 6.30988 48.8123 7.36575C49.8087 8.40676 50.3069 9.88647 50.3069 11.8049C50.3069 13.7233 49.8087 15.2105 48.8123 16.2664Z" stroke="#2B303B" stroke-width="0.929469" mask="url(#path-6-outside-1_2051_554)"/>
<path d="M53.6579 17.6048C53.3159 17.6048 53.0184 17.4784 52.7656 17.2256C52.5128 16.9727 52.3864 16.6753 52.3864 16.3333V7.27652C52.3864 6.93448 52.5128 6.63705 52.7656 6.38423C53.0184 6.13142 53.3159 6.00501 53.6579 6.00501H54.104C54.4461 6.00501 54.7435 6.13142 54.9963 6.38423C55.2491 6.63705 55.3756 6.93448 55.3756 7.27652V8.21343C55.3756 8.2283 55.383 8.23574 55.3979 8.23574C55.4276 8.23574 55.4425 8.2283 55.4425 8.21343C55.8738 7.61857 56.4389 7.13525 57.1378 6.76346C57.8368 6.3768 58.6027 6.13885 59.4355 6.04963C59.7478 6.01988 60.0155 6.12398 60.2385 6.36193C60.4616 6.585 60.5731 6.85269 60.5731 7.16499C60.5731 7.47729 60.4616 7.74498 60.2385 7.96805C60.0155 8.19112 59.7478 8.31753 59.4355 8.34727C56.8032 8.55547 55.4871 9.89391 55.4871 12.3626V16.3333C55.4871 16.6753 55.3607 16.9727 55.1079 17.2256C54.8551 17.4784 54.5576 17.6048 54.2156 17.6048H53.6579Z" stroke="#2B303B" stroke-width="0.929469" mask="url(#path-6-outside-1_2051_554)"/>
<path d="M63.5032 8.61496C63.2058 8.61496 62.953 8.51086 62.7448 8.30266C62.5366 8.07959 62.4325 7.81933 62.4325 7.5219C62.4325 7.22447 62.5366 6.97166 62.7448 6.76346C62.953 6.55526 63.2058 6.45116 63.5032 6.45116H64.574C64.7078 6.45116 64.7748 6.38423 64.7748 6.25039V3.48429C64.7748 3.14224 64.8937 2.84481 65.1317 2.592C65.3845 2.33918 65.6819 2.21277 66.024 2.21277H66.4701C66.8122 2.21277 67.1096 2.33918 67.3624 2.592C67.6152 2.84481 67.7416 3.14224 67.7416 3.48429V6.25039C67.7416 6.38423 67.8085 6.45116 67.9424 6.45116H70.4854C70.7828 6.45116 71.0357 6.55526 71.2439 6.76346C71.4669 6.97166 71.5785 7.22447 71.5785 7.5219C71.5785 7.81933 71.4669 8.07959 71.2439 8.30266C71.0357 8.51086 70.7828 8.61496 70.4854 8.61496H67.9424C67.8085 8.61496 67.7416 8.67445 67.7416 8.79342V13.2995C67.7416 14.2661 67.8457 14.8907 68.0539 15.1733C68.2621 15.4559 68.6934 15.5971 69.3477 15.5971C69.7047 15.5971 69.9724 15.5823 70.1508 15.5525C70.4482 15.5228 70.7085 15.5897 70.9316 15.7533C71.1546 15.9169 71.2662 16.1399 71.2662 16.4225C71.2662 16.7497 71.1546 17.0471 70.9316 17.3148C70.7234 17.5676 70.4631 17.7089 70.1508 17.7386C69.4965 17.7981 69.0057 17.8279 68.6785 17.8279C67.236 17.8279 66.2247 17.523 65.6447 16.9133C65.0648 16.2887 64.7748 15.1807 64.7748 13.5895V8.79342C64.7748 8.67445 64.7078 8.61496 64.574 8.61496H63.5032Z" stroke="#2B303B" stroke-width="0.929469" mask="url(#path-6-outside-1_2051_554)"/>
<path d="M78.9549 7.85651C78.1964 7.85651 77.609 8.07215 77.1926 8.50342C76.7911 8.91983 76.5382 9.59648 76.4341 10.5334C76.4341 10.6524 76.4936 10.7118 76.6126 10.7118H80.9848C81.1038 10.7118 81.1633 10.6524 81.1633 10.5334C81.1038 8.74881 80.3677 7.85651 78.9549 7.85651ZM79.5125 17.8279C77.5644 17.8279 76.0624 17.3222 75.0065 16.311C73.9655 15.2848 73.445 13.7828 73.445 11.8049C73.445 9.84186 73.9134 8.34727 74.8503 7.32114C75.7872 6.295 77.1405 5.78194 78.9102 5.78194C82.2117 5.78194 83.9071 7.65575 83.9963 11.4034C84.0112 11.7603 83.8848 12.0577 83.6171 12.2957C83.3494 12.5336 83.0371 12.6526 82.6802 12.6526H76.5903C76.4564 12.6526 76.4044 12.7195 76.4341 12.8533C76.5382 13.8497 76.8654 14.5784 77.4157 15.0395C77.9808 15.4856 78.7987 15.7087 79.8695 15.7087C80.5387 15.7087 81.2823 15.5971 82.1002 15.3741C82.3679 15.2997 82.6133 15.3443 82.8363 15.5079C83.0743 15.6715 83.1932 15.8946 83.1932 16.1771C83.1932 16.5192 83.0891 16.824 82.8809 17.0917C82.6876 17.3445 82.4274 17.5007 82.1002 17.5602C81.2674 17.7386 80.4048 17.8279 79.5125 17.8279Z" stroke="#2B303B" stroke-width="0.929469" mask="url(#path-6-outside-1_2051_554)"/>
<path d="M85.9707 17.6048C85.6881 17.6048 85.4799 17.4858 85.3461 17.2479C85.2122 17.0099 85.2197 16.772 85.3684 16.534L88.2237 11.8495C88.2981 11.7454 88.2981 11.6413 88.2237 11.5372L85.4799 7.07576C85.3312 6.83781 85.3238 6.59987 85.4576 6.36193C85.5914 6.12398 85.7996 6.00501 86.0822 6.00501H86.796C87.1827 6.00501 87.5396 6.10911 87.8668 6.31731C88.2088 6.51064 88.4691 6.77833 88.6475 7.12037L90.1644 10.0426C90.1644 10.0575 90.1719 10.0649 90.1867 10.0649C90.2016 10.0649 90.209 10.0575 90.209 10.0426L91.7259 7.12037C91.9044 6.77833 92.1572 6.51064 92.4844 6.31731C92.8116 6.10911 93.1759 6.00501 93.5774 6.00501H94.202C94.4846 6.00501 94.6928 6.12398 94.8267 6.36193C94.9605 6.59987 94.9531 6.83781 94.8043 7.07576L92.0606 11.5372C91.9862 11.6413 91.9862 11.7454 92.0606 11.8495L94.9159 16.534C95.0646 16.772 95.072 17.0099 94.9382 17.2479C94.8043 17.4858 94.5961 17.6048 94.3136 17.6048H93.5998C93.1982 17.6048 92.8339 17.5081 92.5067 17.3148C92.1795 17.1066 91.9267 16.8315 91.7483 16.4894L90.1198 13.3664C90.1198 13.3515 90.1124 13.3441 90.0975 13.3441C90.0826 13.3441 90.0752 13.3515 90.0752 13.3664L88.4468 16.4894C88.2683 16.8315 88.0081 17.1066 87.666 17.3148C87.3388 17.5081 86.9819 17.6048 86.5953 17.6048H85.9707Z" stroke="#2B303B" stroke-width="0.929469" mask="url(#path-6-outside-1_2051_554)"/>
<path d="M105.892 1.08813C106.324 1.08816 106.714 1.21373 107.053 1.46606L107.18 1.56372C107.464 1.80054 107.667 2.09756 107.785 2.45142L112.401 16.3235C112.53 16.6902 112.483 17.0442 112.261 17.3596C112.038 17.6748 111.721 17.8372 111.334 17.8372H110.531C110.122 17.8371 109.741 17.7082 109.393 17.4592L109.382 17.4524L109.383 17.4514C109.049 17.1844 108.82 16.8466 108.702 16.4426V16.4417L107.988 13.9202L107.985 13.9124C107.98 13.912 107.973 13.9114 107.966 13.9114H102.925C102.915 13.9114 102.908 13.9126 102.903 13.9133V13.9202L102.68 13.8577L102.902 13.9202L102.189 16.4417L102.188 16.4407C102.084 16.8493 101.853 17.1892 101.504 17.4553L101.503 17.4563C101.165 17.7095 100.781 17.8371 100.359 17.8372H99.6455C99.2586 17.8372 98.9422 17.6747 98.7197 17.3596C98.497 17.0441 98.4498 16.6902 98.5781 16.3235L103.195 2.45142L103.197 2.4436H103.198C103.347 2.04633 103.589 1.71935 103.923 1.46899L103.927 1.46606L104.061 1.37817C104.375 1.1861 104.72 1.08813 105.089 1.08813H105.892ZM116.784 1.08813C117.191 1.08813 117.547 1.24134 117.841 1.5354C118.135 1.82959 118.288 2.18534 118.288 2.59204V16.3333C118.288 16.74 118.135 17.0957 117.841 17.3899C117.547 17.684 117.191 17.8372 116.784 17.8372H115.893C115.486 17.8372 115.13 17.684 114.836 17.3899C114.542 17.0957 114.389 16.74 114.389 16.3333V2.59204C114.389 2.18534 114.542 1.82959 114.836 1.5354C115.13 1.24132 115.486 1.08813 115.893 1.08813H116.784ZM103.71 11.0598H107.181L105.445 4.86743L103.71 11.0598Z" fill="#7A52E1" stroke="#7A52E1" stroke-width="0.464735"/>
<g filter="url(#filter0_d_2051_554)">
<path d="M124.057 9.46265C124.057 5.8728 126.967 2.96265 130.557 2.96265H149.557C153.146 2.96265 156.057 5.8728 156.057 9.46265C156.057 13.0525 153.146 15.9626 149.557 15.9626H130.557C126.967 15.9626 124.057 13.0525 124.057 9.46265Z" fill="url(#paint0_linear_2051_554)" shape-rendering="crispEdges"/>
<path d="M128.772 6.32397H130.896C131.818 6.32397 132.513 6.45744 132.981 6.72437C133.45 6.99129 133.685 7.4519 133.685 8.1062C133.685 8.37964 133.636 8.62703 133.538 8.84839C133.444 9.06649 133.305 9.24715 133.123 9.39038C132.941 9.53035 132.716 9.62476 132.449 9.67358V9.72241C132.726 9.77124 132.972 9.8575 133.187 9.9812C133.405 10.1049 133.576 10.2823 133.699 10.5134C133.826 10.7445 133.89 11.044 133.89 11.4119C133.89 11.8481 133.785 12.2192 133.577 12.5251C133.372 12.8311 133.077 13.0639 132.693 13.2234C132.312 13.3829 131.86 13.4626 131.336 13.4626H128.772V6.32397ZM129.944 9.26831H131.067C131.598 9.26831 131.966 9.18205 132.171 9.00952C132.376 8.837 132.479 8.58472 132.479 8.25269C132.479 7.91414 132.356 7.67 132.112 7.52026C131.871 7.37052 131.487 7.29565 130.96 7.29565H129.944V9.26831ZM129.944 10.2156V12.4812H131.18C131.727 12.4812 132.111 12.3754 132.332 12.1638C132.553 11.9522 132.664 11.6658 132.664 11.3044C132.664 11.0831 132.614 10.891 132.513 10.7283C132.415 10.5655 132.254 10.4402 132.029 10.3523C131.805 10.2611 131.502 10.2156 131.121 10.2156H129.944ZM139.407 13.4626H135.364V6.32397H139.407V7.3103H136.536V9.24878H139.227V10.2302H136.536V12.4714H139.407V13.4626ZM143.426 13.4626H142.249V7.32007H140.159V6.32397H145.511V7.32007H143.426V13.4626ZM151.028 13.4626L150.33 11.4802H147.601L146.902 13.4626H145.667L148.323 6.29468H149.622L152.273 13.4626H151.028ZM150.027 10.4744L149.349 8.52124C149.323 8.4366 149.285 8.31779 149.236 8.16479C149.188 8.00854 149.139 7.85067 149.09 7.69116C149.041 7.5284 149 7.39168 148.968 7.28101C148.935 7.41447 148.895 7.56421 148.846 7.73022C148.8 7.89299 148.755 8.04598 148.709 8.18921C148.667 8.33244 148.634 8.44312 148.611 8.52124L147.928 10.4744H150.027Z" fill="#7A52E1"/>
</g>
<defs>
<filter id="filter0_d_2051_554" x="122.057" y="1.96265" width="36" height="17" filterUnits="userSpaceOnUse" color-interpolation-filters="sRGB">
<feFlood flood-opacity="0" result="BackgroundImageFix"/>
<feColorMatrix in="SourceAlpha" type="matrix" values="0 0 0 0 0 0 0 0 0 0 0 0 0 0 0 0 0 0 127 0" result="hardAlpha"/>
<feOffset dy="1"/>
<feGaussianBlur stdDeviation="1"/>
<feComposite in2="hardAlpha" operator="out"/>
<feColorMatrix type="matrix" values="0 0 0 0 0.443482 0 0 0 0 0.443482 0 0 0 0 0.478518 0 0 0 0.06 0"/>
<feBlend mode="normal" in2="BackgroundImageFix" result="effect1_dropShadow_2051_554"/>
<feBlend mode="normal" in="SourceGraphic" in2="effect1_dropShadow_2051_554" result="shape"/>
</filter>
<linearGradient id="paint0_linear_2051_554" x1="123.734" y1="8.97931" x2="155.734" y2="8.97931" gradientUnits="userSpaceOnUse">
<stop stop-color="#DED3F8"/>
<stop offset="1" stop-color="#E5E5E5"/>
</linearGradient>
</defs>
</svg>
